{"title":"Ironman(2008)MP-4[DaScubaDude]","uid":12350556,"size":1537505302,"categoryP":"video","categoryS":"movies","magnet":"?xt=urn:btih:e67bf536902d1dd9cd37259609528b7764053bb4&amp;dn=Ironman%282008%29MP-4%5BDaScubaDude%5D&amp;tr=udp%3A%2F%2Ftracker.openbittorrent.com%3A80&amp;tr=udp%3A%2F%2Fopen.demonii.com%3A1337&amp;tr=udp%3A%2F%2Ftracker.coppersurfer.tk%3A6969&amp;tr=udp%3A%2F%2Fexodus.desync.com%3A6969","seeders":1,"leechers":0,"uploader":"dascuba","files":1,"time":1441414737,"description":"Iron Man (2008)\nPG-13  |  126 min  |  Action, Adventure, Sci-Fi  |  2 May 2008 (USA)\n7.9 Your rating:   -/10   Ratings: 7.9/10 from 618,279 users   Metascore: 79/100 \nReviews: 1,024 user | 479 critic | 38 from Metacritic.com\nAfter being held captive in an Afghan cave, an industrialist creates a unique weaponized suit of armor to fight evil.\n\nDirector: Jon Favreau\nWriters: Mark Fergus (screenplay), Hawk Ostby (screenplay), 6 more credits Â»\nStars: Robert Downey Jr., Gwyneth Paltrow, Terrence Howard \n\nGeneral\nComplete name                            : C:UsersbillVideosWinXVideosIronmanIRON_MAN_DOM_Title1.mp4\nFormat                                   : MPEG-4\nFormat profile                           : Base Media\nCodec ID                                 : isom\nFile size                                : 1.43 GiB\nDuration                                 : 2h 5mn\nOverall bit rate mode                    : Constant\nOverall bit rate                         : 1 628 Kbps\nMovie name                               : IRON_MAN_DOM\nWriting application                      : Lavf54.6.100\n\nVideo\nID                                       : 1\nFormat                                   : MPEG-4 Visual\nFormat settings, BVOP                    : No\nFormat settings, QPel                    : No\nFormat settings, GMC                     : No warppoints\nFormat settings, Matrix                  : Default (H.263)\nCodec ID                                 : 20\nDuration                                 : 2h 5mn\nBit rate mode                            : Constant\nBit rate                                 : 1 495 Kbps\nWidth                                    : 720 pixels\nHeight                                   : 404 pixels\nDisplay aspect ratio                     : 16:9\nFrame rate mode                          : Constant\nFrame rate                               : 29.970 fps\nColor space                              : YUV\nChroma subsampling                       : 4:2:0\nBit depth                                : 8 bits\nScan type                                : Progressive\nCompression mode                         : Lossy\nBits/(Pixel*Frame)                       : 0.171\nStream size                              : 1.31 GiB (92%)\nWriting library                          : Lavc54.23.100\n\nAudio\nID                                       : 2\nFormat                                   : MPEG Audio\nFormat version                           : Version 1\nFormat profile                           : Layer 3\nCodec ID                                 : 6B\nDuration                                 : 2h 5mn\nBit rate mode                            : Constant\nBit rate                                 : 128 Kbps\nChannel(s)                               : 2 channels\nSampling rate                            : 44.1 KHz\nCompression mode                         : Lossy\nStream size                              : 115 MiB (8%)\nWriting library                          : LAME3.99.5","torrent":{"xt":"urn:btih:e67bf536902d1dd9cd37259609528b7764053bb4","amp;dn":"Ironman%282008%29MP-4%5BDaScubaDude%5D","amp;tr":["udp%3A%2F%2Ftracker.openbittorrent.com%3A80","udp%3A%2F%2Fopen.demonii.com%3A1337","udp%3A%2F%2Ftracker.coppersurfer.tk%3A6969","udp%3A%2F%2Fexodus.desync.com%3A6969"],"infoHash":"e67bf536902d1dd9cd37259609528b7764053bb4","infoHashBuffer":{"type":"Buffer","data":[230,123,245,54,144,45,29,217,205,55,37,150,9,82,139,119,100,5,59,180]},"announce":[],"urlList":[]}}